<svg width="18" height="21" viewBox="0 0 18 21" fill="none" xmlns="http://www.w3.org/2000/svg">
<path id="Vector" d="M16.3393 7.88456H10.625V2.17027H2.05357V19.3131H16.3393V7.88456ZM15.7479 6.45599L12.0536 2.7617V6.45599H15.7479ZM1.33929 0.741699H12.0536L17.7679 6.45599V20.0274C17.7679 20.2169 17.6926 20.3985 17.5587 20.5325C17.4247 20.6664 17.243 20.7417 17.0536 20.7417H1.33929C1.14985 20.7417 0.968164 20.6664 0.83421 20.5325C0.700255 20.3985 0.625 20.2169 0.625 20.0274V1.45598C0.625 1.26654 0.700255 1.08486 0.83421 0.950909C0.968164 0.816954 1.14985 0.741699 1.33929 0.741699ZM4.91071 10.7417H13.4821V12.1703H4.91071V10.7417ZM4.91071 6.45599H8.48214V7.88456H4.91071V6.45599ZM4.91071 15.0274H13.4821V16.456H4.91071V15.0274Z" fill="black"/>
</svg>
