<svg width="10" height="16" viewBox="0 0 10 16" fill="none" xmlns="http://www.w3.org/2000/svg">
<g id="evaFacebookFill0">
<g id="evaFacebookFill1">
<path id="evaFacebookFill2" d="M9.66667 0.543176C9.66667 0.432669 9.62277 0.326688 9.54463 0.248548C9.46649 0.170408 9.36051 0.126509 9.25 0.126509H7.16667C6.1176 0.0742518 5.0905 0.439336 4.30977 1.14199C3.52904 1.84465 3.05815 2.82776 3 3.87651V6.12651H0.916667C0.80616 6.12651 0.700179 6.17041 0.622039 6.24855C0.543899 6.32669 0.5 6.43267 0.5 6.54318V8.70984C0.5 8.82035 0.543899 8.92633 0.622039 9.00447C0.700179 9.08261 0.80616 9.12651 0.916667 9.12651H3V14.7098C3 14.8204 3.0439 14.9263 3.12204 15.0045C3.20018 15.0826 3.30616 15.1265 3.41667 15.1265H5.91667C6.02717 15.1265 6.13315 15.0826 6.2113 15.0045C6.28944 14.9263 6.33333 14.8204 6.33333 14.7098V9.12651H8.51667C8.60933 9.12784 8.69978 9.09824 8.77374 9.0424C8.84769 8.98656 8.90092 8.90766 8.925 8.81818L9.525 6.65151C9.54158 6.58994 9.54381 6.5254 9.53151 6.46283C9.51922 6.40027 9.49273 6.34137 9.45409 6.29065C9.41545 6.23994 9.36569 6.19877 9.30864 6.17031C9.25158 6.14185 9.18876 6.12687 9.125 6.12651H6.33333V3.87651C6.35406 3.67024 6.45093 3.4791 6.60502 3.34042C6.75911 3.20174 6.95936 3.12547 7.16667 3.12651H9.25C9.36051 3.12651 9.46649 3.08261 9.54463 3.00447C9.62277 2.92633 9.66667 2.82035 9.66667 2.70984V0.543176Z" fill="black"/>
</g>
</g>
</svg>
