<svg width="19" height="13" viewBox="0 0 19 13" fill="none" xmlns="http://www.w3.org/2000/svg">
<path id="Vector" d="M18.9998 5.79077H17.3332V4.1241H15.6665V5.79077H13.9998V7.45744H15.6665V9.12411H17.3332V7.45744H18.9998M6.49984 5.79077V7.79077H9.83317C9.6665 8.6241 8.83317 10.2908 6.49984 10.2908C4.49984 10.2908 2.9165 8.62411 2.9165 6.6241C2.9165 4.6241 4.49984 2.95744 6.49984 2.95744C7.6665 2.95744 8.4165 3.45744 8.83317 3.8741L10.4165 2.3741C9.4165 1.3741 8.08317 0.790771 6.49984 0.790771C3.24984 0.790771 0.666504 3.3741 0.666504 6.6241C0.666504 9.87411 3.24984 12.4574 6.49984 12.4574C9.83317 12.4574 12.0832 10.1241 12.0832 6.79077C12.0832 6.3741 12.0832 6.1241 11.9998 5.79077H6.49984Z" fill="black"/>
</svg>
