<svg width="15" height="13" viewBox="0 0 15 13" fill="none" xmlns="http://www.w3.org/2000/svg">
<path id="Vector" d="M1.5 12.043C1.0875 12.043 0.734251 11.896 0.440251 11.602C0.146251 11.308 -0.000498727 10.955 1.27334e-06 10.543V1.54297C1.27334e-06 1.13047 0.147001 0.77722 0.441001 0.48322C0.735001 0.18922 1.088 0.04247 1.5 0.04297H13.5C13.9125 0.04297 14.2657 0.18997 14.5597 0.48397C14.8537 0.77797 15.0005 1.13097 15 1.54297V10.543C15 10.9555 14.853 11.3087 14.559 11.6027C14.265 11.8967 13.912 12.0435 13.5 12.043H1.5ZM7.5 6.79297L1.5 3.04297V10.543H13.5V3.04297L7.5 6.79297ZM7.5 5.29297L13.5 1.54297H1.5L7.5 5.29297ZM1.5 3.04297V1.54297V10.543V3.04297Z" fill="white"/>
</svg>
