<svg width="46" height="41" viewBox="0 0 46 41" fill="none" xmlns="http://www.w3.org/2000/svg">
<path id="Vector" d="M22.0801 0.544304C25.0219 0.443907 28.0181 0.457212 30.8836 1.20717C33.8266 2.06357 36.7805 3.03125 39.4017 4.65575C41.467 5.91302 43.3069 7.5076 44.8449 9.37321C45.5429 10.2018 45.9336 11.3582 45.665 12.4311C45.4001 13.446 44.5764 14.2213 43.6268 14.6156C43.0668 14.8092 42.5116 15.0886 41.9031 15.0559C39.1622 15.0015 36.4212 15.0705 33.6778 15.0559C33.0283 15.0414 32.3122 14.8527 31.9191 14.2975C31.4788 13.7181 30.7808 13.4351 30.1167 13.2004C28.6205 12.6779 27.0335 12.5085 25.4622 12.3948C23.1978 12.2896 20.902 12.3948 18.7005 12.967C17.503 13.3746 16.2813 14.1233 15.8071 15.3559C15.4346 16.5559 15.4152 17.8259 15.4442 19.0718C15.4612 19.5218 15.4249 20.0008 15.6474 20.4109C15.7861 20.6924 15.9952 20.9333 16.2544 21.1103C16.5136 21.2872 16.8141 21.3942 17.1268 21.4209C18.8481 21.6047 20.5826 21.56 22.31 21.56C23.8026 21.5152 25.311 21.5152 26.7855 21.8128C27.4315 21.9148 28.0553 22.1263 28.6301 22.4382C29.7998 23.193 30.4615 24.5888 30.4772 25.9618C30.3998 26.8665 30.1301 27.7762 29.5906 28.5152C28.9921 29.3183 28.1227 29.877 27.1435 30.0877C26.351 30.229 25.5457 30.285 24.7413 30.2546C22.0801 30.222 19.4081 30.2546 16.7421 30.2546C16.2039 30.2438 15.6172 30.4349 15.31 30.9018C15.068 31.2562 15.0487 31.7074 15.0354 32.1235C15.0197 33.7335 14.9338 35.3422 14.8866 36.951C14.8927 37.9707 14.7487 39.1283 13.9649 39.8541C13.3238 40.3633 12.4626 40.4589 11.6666 40.5C9.04179 40.5 6.42058 40.4081 3.79573 40.4044C2.60427 40.419 1.41644 39.7404 0.88179 38.665C0.39069 37.7687 0.321742 36.7297 0.324162 35.7257C0.23707 34.4834 0.258843 33.2375 0.250376 31.9941C0.258843 28.687 0.221347 25.3787 0.318115 22.0753C0.337469 19.575 0.353193 17.0748 0.382224 14.5757C0.399158 13.6189 1.02331 12.6803 1.94261 12.3718C3.13045 11.9279 4.25054 11.3267 5.35491 10.7086C8.18175 9.11866 10.8028 7.18781 13.1593 4.95936C13.7641 4.38238 14.3084 3.75581 14.8527 3.12439C15.3668 2.51959 15.7781 1.79383 16.4821 1.37772C17.4631 0.754775 18.669 0.811628 19.7819 0.690667C20.5451 0.587851 21.3096 0.610832 22.0801 0.544304Z" fill="black"/>
</svg>
