<svg width="16" height="13" viewBox="0 0 16 13" fill="none" xmlns="http://www.w3.org/2000/svg">
<path id="Vector" d="M1.75147 12.624C1.33897 12.624 0.985716 12.477 0.691716 12.183C0.397716 11.889 0.250966 11.536 0.251466 11.124V2.12402C0.251466 1.71152 0.398466 1.35827 0.692466 1.06427C0.986466 0.770275 1.33947 0.623525 1.75147 0.624025H13.7515C14.164 0.624025 14.5172 0.771025 14.8112 1.06502C15.1052 1.35902 15.252 1.71202 15.2515 2.12402V11.124C15.2515 11.5365 15.1045 11.8898 14.8105 12.1838C14.5165 12.4778 14.1635 12.6245 13.7515 12.624H1.75147ZM7.75146 7.37402L1.75147 3.62402V11.124H13.7515V3.62402L7.75146 7.37402ZM7.75146 5.87402L13.7515 2.12402H1.75147L7.75146 5.87402ZM1.75147 3.62402V2.12402V11.124V3.62402Z" fill="black"/>
</svg>
