<svg width="20" height="21" viewBox="0 0 20 21" fill="none" xmlns="http://www.w3.org/2000/svg">
<g id="Group 68">
<path id="Vector" d="M13.5451 15.0274V19.3131H2.11656V2.17027H9.25942V0.741699H2.11656C1.73768 0.741699 1.37432 0.892209 1.10641 1.16012C0.838498 1.42803 0.687988 1.79139 0.687988 2.17027V19.3131C0.687988 19.692 0.838498 20.0554 1.10641 20.3233C1.37432 20.5912 1.73768 20.7417 2.11656 20.7417H13.5451C13.924 20.7417 14.2874 20.5912 14.5553 20.3233C14.8232 20.0554 14.9737 19.692 14.9737 19.3131V15.0274H13.5451Z" fill="black"/>
<path id="Vector_2" d="M18.9308 3.42749L16.5736 1.07035C16.36 0.860944 16.0728 0.743652 15.7736 0.743652C15.4745 0.743652 15.1873 0.860944 14.9736 1.07035L4.97363 11.0703V15.0275H8.92363L18.9236 5.02749C19.133 4.81386 19.2503 4.52664 19.2503 4.22749C19.2503 3.92834 19.133 3.64112 18.9236 3.42749H18.9308ZM8.33078 13.5989H6.4022V11.6703L13.1451 4.92035L15.0808 6.85606L8.33078 13.5989ZM16.0879 5.84892L14.1522 3.9132L15.7736 2.29177L17.7093 4.22749L16.0879 5.84892Z" fill="black"/>
</g>
</svg>
