<svg width="13" height="13" viewBox="0 0 13 13" fill="none" xmlns="http://www.w3.org/2000/svg">
<path id="Vector" d="M12.1083 8.66015L9.18468 7.35006L9.17662 7.34634C9.02484 7.28142 8.85927 7.25537 8.69489 7.27054C8.5305 7.28571 8.3725 7.34162 8.23516 7.43322C8.21899 7.4439 8.20345 7.45551 8.18862 7.46798L6.67807 8.75572C5.72111 8.29089 4.73311 7.31034 4.26828 6.36579L5.55789 4.83228C5.5703 4.81677 5.58209 4.80125 5.59326 4.7845C5.6829 4.64753 5.73728 4.49053 5.75157 4.32747C5.76586 4.16441 5.73962 4.00034 5.67518 3.84987V3.84242L4.36137 0.913808C4.27619 0.717241 4.12972 0.553496 3.94382 0.447015C3.75793 0.340535 3.54258 0.29703 3.32993 0.322995C2.489 0.433653 1.7171 0.846639 1.15841 1.48482C0.599713 2.123 0.29243 2.94273 0.293951 3.79091C0.293951 8.71849 4.30303 12.7276 9.23061 12.7276C10.0788 12.7291 10.8985 12.4218 11.5367 11.8631C12.1749 11.3044 12.5879 10.5325 12.6985 9.69159C12.7245 9.47901 12.6811 9.26372 12.5748 9.07784C12.4684 8.89195 12.3048 8.74544 12.1083 8.66015ZM9.23061 11.7346C7.12452 11.7323 5.10534 10.8946 3.61611 9.40541C2.12687 7.91618 1.28921 5.89701 1.28691 3.79091C1.28458 3.18489 1.50291 2.59874 1.90114 2.14192C2.29938 1.6851 2.85027 1.38886 3.45095 1.30851C3.4507 1.31099 3.4507 1.31348 3.45095 1.31596L4.75421 4.23278L3.47143 5.76815C3.45841 5.78313 3.44658 5.79911 3.43605 5.81594C3.34266 5.95924 3.28788 6.12425 3.277 6.29495C3.26613 6.46566 3.29954 6.63628 3.37399 6.79028C3.93626 7.94025 5.09492 9.09023 6.25731 9.65187C6.41244 9.72563 6.58404 9.75788 6.75537 9.74548C6.92669 9.73308 7.09186 9.67645 7.23475 9.58112C7.25069 9.57039 7.26602 9.55879 7.28068 9.54637L8.78936 8.25924L11.7062 9.56561H11.713C11.6336 10.1671 11.3378 10.7191 10.8809 11.1184C10.424 11.5176 9.83734 11.7367 9.23061 11.7346Z" fill="white"/>
</svg>
