<svg width="13" height="15" viewBox="0 0 13 15" fill="none" xmlns="http://www.w3.org/2000/svg">
<path id="Vector" d="M6.50036 1.32799C5.30753 1.32799 4.16356 1.80184 3.3201 2.64529C2.47664 3.48875 2.00279 4.63273 2.00279 5.82555C2.00279 7.66442 3.14774 9.43839 4.40449 10.8127C5.04744 11.5125 5.74857 12.1564 6.50036 12.7377C7.25213 12.1569 7.95327 11.5133 8.59623 10.814C9.85297 9.43839 10.9979 7.66506 10.9979 5.82555C10.9979 4.63273 10.5241 3.48875 9.68062 2.64529C8.83716 1.80184 7.69319 1.32799 6.50036 1.32799ZM6.50036 14.3157L6.13606 14.0651L6.13413 14.0638L6.13027 14.0606L6.11742 14.0516L6.06924 14.0176C5.80319 13.8242 5.54307 13.6227 5.28923 13.4136C4.63861 12.8791 4.02609 12.2999 3.45615 11.6801C2.14286 10.2435 0.717773 8.16236 0.717773 5.82555C0.717773 4.29192 1.32701 2.82109 2.41145 1.73665C3.4959 0.652204 4.96672 0.0429687 6.50036 0.0429688C8.034 0.0429688 9.50482 0.652204 10.5893 1.73665C11.6737 2.82109 12.2829 4.29192 12.2829 5.82555C12.2829 8.16236 10.8579 10.2441 9.54457 11.6801C8.80046 12.4895 7.98409 13.2293 7.1056 13.8903C7.0324 13.945 6.95851 13.9988 6.88394 14.0516L6.87045 14.0606L6.86659 14.0638L6.8653 14.0645L6.50036 14.315V14.3157ZM6.50036 4.54054C6.15955 4.54054 5.8327 4.67592 5.59171 4.91691C5.35073 5.1579 5.21534 5.48475 5.21534 5.82555C5.21534 6.16636 5.35073 6.49321 5.59171 6.7342C5.8327 6.97519 6.15955 7.11057 6.50036 7.11057C6.84117 7.11057 7.16802 6.97519 7.40901 6.7342C7.64999 6.49321 7.78538 6.16636 7.78538 5.82555C7.78538 5.48475 7.64999 5.1579 7.40901 4.91691C7.16802 4.67592 6.84117 4.54054 6.50036 4.54054ZM3.93032 5.82555C3.93032 5.14394 4.20109 4.49024 4.68307 4.00826C5.16504 3.52629 5.81874 3.25552 6.50036 3.25552C7.18198 3.25552 7.83568 3.52629 8.31765 4.00826C8.79963 4.49024 9.0704 5.14394 9.0704 5.82555C9.0704 6.50717 8.79963 7.16087 8.31765 7.64285C7.83568 8.12482 7.18198 8.39559 6.50036 8.39559C5.81874 8.39559 5.16504 8.12482 4.68307 7.64285C4.20109 7.16087 3.93032 6.50717 3.93032 5.82555Z" fill="white"/>
</svg>
