<svg width="17" height="16" viewBox="0 0 17 16" fill="none" xmlns="http://www.w3.org/2000/svg">
<g id="lucide:search">
<g id="Group">
<path id="Vector (Stroke)" fill-rule="evenodd" clip-rule="evenodd" d="M8.27588 3.375C5.69855 3.375 3.60921 5.33375 3.60921 7.75C3.60921 10.1662 5.69855 12.125 8.27588 12.125C10.8532 12.125 12.9425 10.1662 12.9425 7.75C12.9425 5.33375 10.8532 3.375 8.27588 3.375ZM2.27588 7.75C2.27588 4.6434 4.96217 2.125 8.27588 2.125C11.5896 2.125 14.2759 4.6434 14.2759 7.75C14.2759 10.8566 11.5896 13.375 8.27588 13.375C4.96217 13.375 2.27588 10.8566 2.27588 7.75Z" fill="black" fill-opacity="0.6"/>
<path id="Vector (Stroke)_2" fill-rule="evenodd" clip-rule="evenodd" d="M11.6044 10.8706C11.8648 10.6265 12.2869 10.6265 12.5473 10.8706L15.4139 13.5581C15.6743 13.8021 15.6743 14.1979 15.4139 14.4419C15.1536 14.686 14.7315 14.686 14.4711 14.4419L11.6044 11.7544C11.3441 11.5104 11.3441 11.1146 11.6044 10.8706Z" fill="black" fill-opacity="0.6"/>
</g>
</g>
</svg>
