<svg width="40" height="41" viewBox="0 0 40 41" fill="none" xmlns="http://www.w3.org/2000/svg">
<path id="Vector" fill-rule="evenodd" clip-rule="evenodd" d="M37.7436 0.891357C38.276 0.891357 38.7866 1.10284 39.163 1.47929C39.5395 1.85574 39.751 2.36632 39.751 2.8987V20.7417C39.751 21.2741 39.5395 21.7847 39.163 22.1611C38.7866 22.5375 38.276 22.749 37.7436 22.749C37.2113 22.749 36.7007 22.5375 36.3242 22.1611C35.9478 21.7847 35.7363 21.2741 35.7363 20.7417V7.74307L6.90201 36.5774H19.9006C20.433 36.5774 20.9436 36.7889 21.32 37.1653C21.6965 37.5417 21.908 38.0523 21.908 38.5847C21.908 39.1171 21.6965 39.6277 21.32 40.0041C20.9436 40.3806 20.433 40.592 19.9006 40.592H2.05763C1.52525 40.592 1.01468 40.3806 0.638229 40.0041C0.26178 39.6277 0.050293 39.1171 0.050293 38.5847V20.7417C0.050293 20.4781 0.102215 20.2171 0.203093 19.9735C0.303971 19.73 0.451831 19.5087 0.638229 19.3223C0.824628 19.1359 1.04591 18.988 1.28946 18.8872C1.533 18.7863 1.79402 18.7344 2.05763 18.7344C2.32124 18.7344 2.58226 18.7863 2.82581 18.8872C3.06935 18.988 3.29063 19.1359 3.47703 19.3223C3.66343 19.5087 3.81129 19.73 3.91217 19.9735C4.01305 20.2171 4.06497 20.4781 4.06497 20.7417V33.7403L32.8993 4.90603H19.9006C19.3683 4.90603 18.8577 4.69455 18.4812 4.3181C18.1048 3.94165 17.8933 3.43107 17.8933 2.8987C17.8933 2.36632 18.1048 1.85574 18.4812 1.47929C18.8577 1.10284 19.3683 0.891357 19.9006 0.891357H37.7436Z" fill="black"/>
</svg>
