<svg width="10" height="10" viewBox="0 0 10 10" fill="none" xmlns="http://www.w3.org/2000/svg">
<path id="Vector" fill-rule="evenodd" clip-rule="evenodd" d="M9.49438 0C9.62848 0 9.75709 0.0532705 9.85191 0.148092C9.94673 0.242914 10 0.37152 10 0.505618V5C10 5.1341 9.94673 5.2627 9.85191 5.35753C9.75709 5.45235 9.62848 5.50562 9.49438 5.50562C9.36028 5.50562 9.23168 5.45235 9.13686 5.35753C9.04204 5.2627 8.98876 5.1341 8.98876 5V1.72584L1.72584 8.98876H5C5.1341 8.98876 5.2627 9.04204 5.35753 9.13686C5.45235 9.23168 5.50562 9.36028 5.50562 9.49438C5.50562 9.62848 5.45235 9.75709 5.35753 9.85191C5.2627 9.94673 5.1341 10 5 10H0.505618C0.37152 10 0.242914 9.94673 0.148092 9.85191C0.0532705 9.75709 0 9.62848 0 9.49438V5C-1.97884e-09 4.9336 0.0130783 4.86785 0.038488 4.80651C0.0638977 4.74516 0.101141 4.68942 0.148092 4.64247C0.195043 4.59552 0.250782 4.55828 0.312126 4.53287C0.373471 4.50746 0.439219 4.49438 0.505618 4.49438C0.572017 4.49438 0.637765 4.50746 0.69911 4.53287C0.760454 4.55828 0.816193 4.59552 0.863144 4.64247C0.910095 4.68942 0.947338 4.74516 0.972748 4.80651C0.998158 4.86785 1.01124 4.9336 1.01124 5V8.27416L8.27416 1.01124H5C4.8659 1.01124 4.7373 0.957966 4.64247 0.863144C4.54765 0.768322 4.49438 0.639716 4.49438 0.505618C4.49438 0.37152 4.54765 0.242914 4.64247 0.148092C4.7373 0.0532705 4.8659 0 5 0H9.49438Z" fill="black"/>
</svg>
