<svg width="49" height="49" viewBox="0 0 49 49" fill="none" xmlns="http://www.w3.org/2000/svg">
<g id="evaPricetagsOutline0">
<g id="evaPricetagsOutline1">
<g id="evaPricetagsOutline2">
<path id="Vector" d="M24.409 48.7417C23.1216 48.7402 21.8864 48.2327 20.9698 47.3287L3.88048 30.2127C3.44195 29.7767 3.16863 29.2018 3.10732 28.5864L0.761205 3.65889C0.725291 3.2684 0.77596 2.8748 0.9096 2.50613C1.04324 2.13747 1.25656 1.80283 1.53436 1.52606C1.81113 1.24826 2.14577 1.03494 2.51444 0.9013C2.8831 0.767659 3.2767 0.71699 3.66719 0.752904L28.5947 3.09902C29.2101 3.16033 29.785 3.43365 30.221 3.87218L47.337 20.9615C48.2438 21.8711 48.753 23.103 48.753 24.3874C48.753 25.6717 48.2438 26.9037 47.337 27.8132L27.8216 47.3287C26.9148 48.2311 25.6883 48.739 24.409 48.7417ZM8.41275 27.1201L24.409 43.1163L43.2046 24.3207L27.2084 8.32447L6.38656 6.37826L8.41275 27.1201Z" fill="black"/>
<path id="Vector_2" d="M18.0914 22.0811C20.3 22.0811 22.0904 20.2907 22.0904 18.0821C22.0904 15.8735 20.3 14.083 18.0914 14.083C15.8827 14.083 14.0923 15.8735 14.0923 18.0821C14.0923 20.2907 15.8827 22.0811 18.0914 22.0811Z" fill="black"/>
</g>
</g>
</g>
</svg>
