<svg width="12" height="11" viewBox="0 0 12 11" fill="none" xmlns="http://www.w3.org/2000/svg">
<g id="Group 1">
<path id="Vector" d="M3.60823 8.53726L5.18829 6.9572L4.66346 6.43237L3.0834 8.01243L2.78907 7.7181C2.71947 7.64851 2.62507 7.60942 2.52665 7.60942C2.42823 7.60942 2.33384 7.64851 2.26424 7.7181L0.779571 9.20276C0.709988 9.27237 0.670898 9.36676 0.670898 9.46518C0.670898 9.5636 0.709988 9.65799 0.779571 9.72759L1.89307 10.8411C1.96268 10.9107 2.05707 10.9498 2.15549 10.9498C2.25391 10.9498 2.3483 10.9107 2.4179 10.8411L3.90257 9.35643C3.97215 9.28682 4.01124 9.19243 4.01124 9.09401C4.01124 8.99559 3.97215 8.9012 3.90257 8.8316L3.60823 8.53726ZM2.15549 10.0538L1.56682 9.46518L2.52665 8.50534L3.11533 9.09401L2.15549 10.0538Z" fill="black"/>
<path id="Vector_2" d="M9.20763 10.5786C8.6172 10.5779 8.05115 10.343 7.63366 9.92554C7.21616 9.50804 6.98131 8.94199 6.98062 8.35157C6.98079 8.15754 7.007 7.96442 7.05857 7.77737L3.84352 4.56195C3.65634 4.61351 3.4631 4.63973 3.26895 4.6399C2.90611 4.64135 2.54845 4.55376 2.22734 4.38482C1.90622 4.21588 1.63145 3.97074 1.42712 3.6709C1.2228 3.37105 1.09514 3.02566 1.05536 2.665C1.01558 2.30434 1.06489 1.93943 1.19895 1.60227L1.40606 1.07484L2.63537 2.30414C2.70601 2.3716 2.79993 2.40924 2.8976 2.40924C2.99527 2.40924 3.08919 2.3716 3.15983 2.30414C3.19433 2.2697 3.2217 2.2288 3.24037 2.18377C3.25904 2.13874 3.26866 2.09047 3.26866 2.04173C3.26866 1.99298 3.25904 1.94471 3.24037 1.89968C3.2217 1.85466 3.19433 1.81375 3.15983 1.77931L1.93089 0.549265L2.45907 0.342525C2.79623 0.208698 3.16107 0.159591 3.52161 0.199507C3.88216 0.239423 4.22742 0.367142 4.52715 0.571478C4.82688 0.775813 5.07192 1.05053 5.24082 1.37156C5.40973 1.69259 5.49733 2.05015 5.49595 2.41289C5.49579 2.60692 5.46957 2.80004 5.41801 2.98709L8.63343 6.20251C8.82049 6.15101 9.01361 6.1248 9.20763 6.12456C9.57047 6.12311 9.92813 6.2107 10.2492 6.37964C10.5704 6.54858 10.8451 6.79372 11.0495 7.09356C11.2538 7.39341 11.3814 7.7388 11.4212 8.09946C11.461 8.46012 11.4117 8.82503 11.2776 9.1622L11.0709 9.68962L9.84121 8.46032C9.77057 8.39286 9.67665 8.35522 9.57898 8.35522C9.4813 8.35522 9.38739 8.39286 9.31675 8.46032C9.28223 8.49473 9.25483 8.53562 9.23612 8.58063C9.21742 8.62565 9.20777 8.67391 9.20774 8.72266C9.2077 8.7714 9.21728 8.81968 9.23592 8.86472C9.25456 8.90976 9.2819 8.95068 9.31638 8.98515L10.5461 10.2148L10.0183 10.4219C9.76027 10.5246 9.48527 10.5777 9.20763 10.5786ZM4.0343 3.70307L7.91708 7.58585L7.82837 7.81226C7.74144 8.02957 7.70746 8.26445 7.72923 8.49749C7.75101 8.73053 7.82791 8.95505 7.9536 9.1525C8.07928 9.34995 8.25014 9.51466 8.45205 9.63303C8.65397 9.7514 8.88115 9.82004 9.11483 9.83327L8.79155 9.51035C8.68813 9.40695 8.60609 9.28419 8.55012 9.14908C8.49415 9.01397 8.46534 8.86916 8.46534 8.72292C8.46534 8.57668 8.49415 8.43187 8.55012 8.29676C8.60609 8.16165 8.68813 8.03889 8.79155 7.93549C9.00367 7.73294 9.28568 7.61992 9.57898 7.61992C9.87227 7.61992 10.1543 7.73294 10.3664 7.93549L10.6893 8.25877C10.676 8.02508 10.6073 7.7979 10.4889 7.59599C10.3705 7.39407 10.2058 7.22323 10.0083 7.09755C9.81083 6.97187 9.5863 6.89497 9.35324 6.87319C9.12018 6.85142 8.88528 6.88539 8.66795 6.97231L8.44191 7.06102L4.5595 3.17861L4.64858 2.9522C4.73552 2.73486 4.76949 2.49995 4.7477 2.26688C4.7259 2.03381 4.64897 1.80928 4.52324 1.61182C4.39751 1.41437 4.22661 1.24966 4.02465 1.13131C3.82268 1.01296 3.59546 0.944368 3.36174 0.931196L3.68466 1.25411C3.78808 1.35751 3.87011 1.48027 3.92608 1.61538C3.98205 1.75049 4.01086 1.8953 4.01086 2.04154C4.01086 2.18778 3.98205 2.3326 3.92608 2.4677C3.87011 2.60281 3.78808 2.72557 3.68466 2.82897C3.47254 3.03152 3.19052 3.14454 2.89723 3.14454C2.60393 3.14454 2.32192 3.03152 2.1098 2.82897L1.78688 2.50569C1.80011 2.73937 1.86875 2.96655 1.98712 3.16847C2.10549 3.37038 2.2702 3.54124 2.46765 3.66692C2.6651 3.79261 2.88961 3.86951 3.12265 3.89129C3.3557 3.91306 3.59057 3.87908 3.80789 3.79215L4.0343 3.70307Z" fill="black"/>
<path id="Vector_3" d="M11.109 0.501355C10.8969 0.298809 10.6149 0.185791 10.3216 0.185791C10.0283 0.185791 9.74626 0.298809 9.53414 0.501355L6.75781 3.27768L7.28264 3.80251L10.059 1.02619C10.1297 0.958706 10.2237 0.921056 10.3214 0.921056C10.4191 0.921056 10.5131 0.958706 10.5838 1.02619C10.6532 1.09589 10.6922 1.19024 10.6922 1.2886C10.6922 1.38696 10.6532 1.48132 10.5838 1.55102L7.80747 4.32734L8.3323 4.85255L11.1086 2.07622C11.3172 1.86724 11.4344 1.58405 11.4344 1.28879C11.4344 0.993525 11.3176 0.710327 11.109 0.501355Z" fill="black"/>
</g>
</svg>
