<svg width="49" height="49" viewBox="0 0 49 49" fill="none" xmlns="http://www.w3.org/2000/svg">
<g id="Group 20">
<path id="Vector" d="M24.7498 42.4109C34.5082 42.4109 42.4189 34.5001 42.4189 24.7417C42.4189 14.9833 34.5082 7.07251 24.7498 7.07251C14.9913 7.07251 7.08057 14.9833 7.08057 24.7417C7.08057 34.5001 14.9913 42.4109 24.7498 42.4109Z" fill="white"/>
<path id="Vector_2" d="M24.75 1.57104C11.9531 1.57104 1.57959 11.9446 1.57959 24.7414C1.57959 37.5383 11.9531 47.9118 24.75 47.9118C37.5468 47.9118 47.9204 37.5383 47.9204 24.7414C47.9204 11.9446 37.5468 1.57104 24.75 1.57104ZM24.75 42.0937C15.1671 42.0937 7.3977 34.3243 7.3977 24.7414C7.3977 15.1585 15.1679 7.38915 24.75 7.38915C34.3321 7.38915 42.1022 15.1593 42.1022 24.7414C42.1022 34.3235 34.3321 42.0937 24.75 42.0937Z" fill="black"/>
<path id="Vector_3" d="M24.7509 19.137C23.2644 19.137 21.8388 19.7275 20.7876 20.7786C19.7365 21.8297 19.146 23.2553 19.146 24.7419C19.146 26.2284 19.7365 27.654 20.7876 28.7051C21.8388 29.7562 23.2644 30.3468 24.7509 30.3468C26.2374 30.3468 27.663 29.7562 28.7142 28.7051C29.7653 27.654 30.3558 26.2284 30.3558 24.7419C30.3558 23.2553 29.7653 21.8297 28.7142 20.7786C27.663 19.7275 26.2374 19.137 24.7509 19.137ZM24.7509 27.2307C24.0908 27.2307 23.4578 26.9685 22.991 26.5017C22.5243 26.035 22.262 25.4019 22.262 24.7419C22.262 24.0818 22.5243 23.4487 22.991 22.982C23.4578 22.5152 24.0908 22.253 24.7509 22.253C25.411 22.253 26.044 22.5152 26.5108 22.982C26.9775 23.4487 27.2397 24.0818 27.2397 24.7419C27.2397 25.4019 26.9775 26.035 26.5108 26.5017C26.044 26.9685 25.411 27.2307 24.7509 27.2307Z" fill="black"/>
<g id="Group">
<path id="Vector (Stroke)" fill-rule="evenodd" clip-rule="evenodd" d="M24.75 2.40093C12.4115 2.40093 2.40923 12.4032 2.40923 24.7417C2.40923 37.0802 12.4115 47.0825 24.75 47.0825C37.0885 47.0825 47.0908 37.0802 47.0908 24.7417C47.0908 12.4032 37.0885 2.40093 24.75 2.40093ZM0.75 24.7417C0.75 11.4869 11.4952 0.741699 24.75 0.741699C38.0048 0.741699 48.75 11.4869 48.75 24.7417C48.75 37.9965 38.0048 48.7417 24.75 48.7417C11.4952 48.7417 0.75 37.9965 0.75 24.7417Z" fill="black"/>
<path id="Vector (Stroke)_2" fill-rule="evenodd" clip-rule="evenodd" d="M24.7498 7.90215C15.4495 7.90215 7.91021 15.4415 7.91021 24.7417C7.91021 34.042 15.4495 41.5813 24.7498 41.5813C34.05 41.5813 41.5894 34.042 41.5894 24.7417C41.5894 15.4415 34.05 7.90215 24.7498 7.90215ZM6.25098 24.7417C6.25098 14.5251 14.5332 6.24292 24.7498 6.24292C34.9664 6.24292 43.2486 14.5251 43.2486 24.7417C43.2486 34.9583 34.9664 43.2405 24.7498 43.2405C14.5332 43.2405 6.25098 34.9583 6.25098 24.7417Z" fill="black"/>
<path id="Vector (Stroke)_3" fill-rule="evenodd" clip-rule="evenodd" d="M19.9895 6.97844C20.432 6.85983 20.8869 7.12244 21.0056 7.56501L24.1009 19.1141C24.2195 19.5567 23.9569 20.0116 23.5143 20.1302C23.0717 20.2488 22.6168 19.9862 22.4982 19.5436L19.4029 7.99454C19.2843 7.55198 19.5469 7.09705 19.9895 6.97844ZM37.754 11.7378C38.078 12.0618 38.078 12.5871 37.754 12.911L29.2994 21.3657C28.9754 21.6897 28.4501 21.6897 28.1262 21.3657C27.8022 21.0417 27.8022 20.5164 28.1262 20.1924L36.5808 11.7378C36.9048 11.4138 37.43 11.4138 37.754 11.7378ZM6.986 19.9819C7.1046 19.5393 7.55952 19.2767 8.00209 19.3953L19.5495 22.4898C19.9921 22.6084 20.2547 23.0633 20.1361 23.5059C20.0175 23.9484 19.5626 24.2111 19.12 24.0925L7.5726 20.998C7.13003 20.8794 6.8674 20.4245 6.986 19.9819ZM29.3624 25.9785C29.481 25.5359 29.9359 25.2732 30.3785 25.3918L41.9267 28.4854C42.3693 28.604 42.632 29.0589 42.5134 29.5014C42.3948 29.944 41.94 30.2067 41.4974 30.0881L29.9491 26.9945C29.5065 26.8759 29.2439 26.421 29.3624 25.9785ZM21.3732 28.1186C21.6972 28.4426 21.6972 28.9679 21.3732 29.2918L12.9186 37.7465C12.5946 38.0704 12.0693 38.0704 11.7454 37.7465C11.4214 37.4225 11.4214 36.8972 11.7454 36.5732L20.2 28.1186C20.524 27.7946 21.0493 27.7946 21.3732 28.1186ZM25.986 29.3549C26.4286 29.2363 26.8835 29.499 27.0021 29.9415L30.0957 41.4898C30.2143 41.9324 29.9516 42.3873 29.509 42.5058C29.0664 42.6244 28.6115 42.3617 28.493 41.9192L25.3993 30.3709C25.2808 29.9283 25.5434 29.4734 25.986 29.3549Z" fill="black"/>
<path id="Vector (Stroke)_4" fill-rule="evenodd" clip-rule="evenodd" d="M24.7509 19.9661C22.1136 19.9661 19.9756 22.1041 19.9756 24.7414C19.9756 27.3787 22.1136 29.5167 24.7509 29.5167C27.3882 29.5167 29.5262 27.3787 29.5262 24.7414C29.5262 22.1041 27.3882 19.9661 24.7509 19.9661ZM18.3164 24.7414C18.3164 21.1877 21.1972 18.3069 24.7509 18.3069C28.3046 18.3069 31.1854 21.1877 31.1854 24.7414C31.1854 28.2951 28.3046 31.1759 24.7509 31.1759C21.1972 31.1759 18.3164 28.2951 18.3164 24.7414Z" fill="black"/>
<path id="Vector (Stroke)_5" fill-rule="evenodd" clip-rule="evenodd" d="M24.7496 23.0823C23.8333 23.0823 23.0904 23.8252 23.0904 24.7416C23.0904 25.6579 23.8333 26.4008 24.7496 26.4008C25.666 26.4008 26.4089 25.6579 26.4089 24.7416C26.4089 23.8252 25.666 23.0823 24.7496 23.0823ZM21.4312 24.7416C21.4312 22.9088 22.9169 21.4231 24.7496 21.4231C26.5824 21.4231 28.0681 22.9088 28.0681 24.7416C28.0681 26.5743 26.5824 28.06 24.7496 28.06C22.9169 28.06 21.4312 26.5743 21.4312 24.7416Z" fill="black"/>
</g>
</g>
</svg>
